<svg width="1080" height="1080" viewBox="0 0 1080 1080" fill="none" xmlns="http://www.w3.org/2000/svg">
  <rect width="1080" height="1080" fill="#FFF7ED"/>
  <path d="M0 0H1080V210H0V0Z" fill="#FF671F"/>
  <path d="M0 870H1080V1080H0V870Z" fill="#138808"/>
  <circle cx="934" cy="180" r="220" fill="white" fill-opacity="0.18"/>
  <circle cx="160" cy="888" r="260" fill="white" fill-opacity="0.16"/>
  <g transform="translate(92 80)">
    <circle cx="38" cy="38" r="32" stroke="white" stroke-width="8"/>
    <path d="M49 21L29 58L58 45L49 21Z" fill="white"/>
    <text x="88" y="51" font-family="Inter, Segoe UI, Arial, sans-serif" font-size="48" font-weight="900" fill="white">wayfinder</text>
  </g>
  <rect x="82" y="282" width="916" height="520" rx="44" fill="white"/>
  <rect x="82" y="282" width="916" height="520" rx="44" stroke="#E2E8F0" stroke-width="3"/>
  <text x="126" y="386" font-family="Inter, Segoe UI, Arial, sans-serif" font-size="78" font-weight="950" fill="#071124">Plan India</text>
  <text x="126" y="478" font-family="Inter, Segoe UI, Arial, sans-serif" font-size="78" font-weight="950" fill="#071124">trips faster</text>
  <text x="126" y="552" font-family="Inter, Segoe UI, Arial, sans-serif" font-size="34" font-weight="600" fill="#475569">Compare flights, trains, buses,</text>
  <text x="126" y="598" font-family="Inter, Segoe UI, Arial, sans-serif" font-size="34" font-weight="600" fill="#475569">cab and self-drive routes in one search.</text>
  <rect x="126" y="660" width="326" height="72" rx="36" fill="#FF671F"/>
  <text x="289" y="708" text-anchor="middle" font-family="Inter, Segoe UI, Arial, sans-serif" font-size="28" font-weight="900" fill="white">Try Wayfinder</text>
  <g transform="translate(590 380)">
    <rect width="330" height="292" rx="32" fill="#F8FAFC"/>
    <path d="M54 210C122 130 214 170 278 72" stroke="#138808" stroke-width="12" stroke-linecap="round" stroke-dasharray="24 20"/>
    <circle cx="54" cy="210" r="18" fill="#FF671F" stroke="white" stroke-width="7"/>
    <circle cx="278" cy="72" r="18" fill="#138808" stroke="white" stroke-width="7"/>
    <rect x="36" y="36" width="156" height="34" rx="17" fill="#EAF7E8"/>
    <text x="114" y="59" text-anchor="middle" font-family="Inter, Segoe UI, Arial, sans-serif" font-size="17" font-weight="850" fill="#138808">Live routes</text>
    <rect x="36" y="230" width="240" height="34" rx="17" fill="#FFF1E8"/>
    <text x="156" y="253" text-anchor="middle" font-family="Inter, Segoe UI, Arial, sans-serif" font-size="17" font-weight="850" fill="#FF671F">Compare live fares</text>
  </g>
  <text x="540" y="955" text-anchor="middle" font-family="Inter, Segoe UI, Arial, sans-serif" font-size="42" font-weight="900" fill="white">wayfinderinfo.com</text>
</svg>
