<svg width="1200" height="628" viewBox="0 0 1200 628" fill="none" xmlns="http://www.w3.org/2000/svg">
  <defs>
    <linearGradient id="bg" x1="0" y1="0" x2="1200" y2="628" gradientUnits="userSpaceOnUse">
      <stop stop-color="#FFF7ED"/>
      <stop offset="0.52" stop-color="#FFFFFF"/>
      <stop offset="1" stop-color="#ECFDF5"/>
    </linearGradient>
  </defs>
  <rect width="1200" height="628" fill="url(#bg)"/>
  <circle cx="1024" cy="102" r="230" fill="#FF671F" fill-opacity="0.13"/>
  <circle cx="138" cy="540" r="260" fill="#138808" fill-opacity="0.12"/>
  <g transform="translate(62 52)">
    <circle cx="25" cy="25" r="21" stroke="#138808" stroke-width="6"/>
    <path d="M34 13L18 39L40 29L34 13Z" fill="#FF671F"/>
    <text x="60" y="36" font-family="Inter, Segoe UI, Arial, sans-serif" font-size="32" font-weight="950" fill="#138808">way</text>
    <text x="128" y="36" font-family="Inter, Segoe UI, Arial, sans-serif" font-size="32" font-weight="950" fill="#FF671F">finder</text>
  </g>
  <text x="62" y="192" font-family="Inter, Segoe UI, Arial, sans-serif" font-size="64" font-weight="950" fill="#071124">Explore India daily</text>
  <text x="66" y="262" font-family="Inter, Segoe UI, Arial, sans-serif" font-size="29" font-weight="600" fill="#475569">Temples, hill stations, cities, beaches,</text>
  <text x="66" y="304" font-family="Inter, Segoe UI, Arial, sans-serif" font-size="29" font-weight="600" fill="#475569">wildlife escapes and route ideas.</text>
  <g transform="translate(66 368)">
    <rect width="190" height="62" rx="31" fill="#FFF1E8"/>
    <text x="95" y="40" text-anchor="middle" font-family="Inter, Segoe UI, Arial, sans-serif" font-size="23" font-weight="900" fill="#FF671F">Temples</text>
    <rect x="212" width="220" height="62" rx="31" fill="#EAF7E8"/>
    <text x="322" y="40" text-anchor="middle" font-family="Inter, Segoe UI, Arial, sans-serif" font-size="23" font-weight="900" fill="#138808">Hill stations</text>
    <rect x="454" width="168" height="62" rx="31" fill="#FFF1E8"/>
    <text x="538" y="40" text-anchor="middle" font-family="Inter, Segoe UI, Arial, sans-serif" font-size="23" font-weight="900" fill="#FF671F">Cities</text>
  </g>
  <g transform="translate(736 120)">
    <rect width="360" height="390" rx="42" fill="white" stroke="#E2E8F0" stroke-width="3"/>
    <rect x="42" y="50" width="276" height="76" rx="26" fill="#F8FAFC"/>
    <text x="74" y="98" font-family="Inter, Segoe UI, Arial, sans-serif" font-size="25" font-weight="900" fill="#071124">Tirupati</text>
    <rect x="42" y="150" width="276" height="76" rx="26" fill="#F8FAFC"/>
    <text x="74" y="198" font-family="Inter, Segoe UI, Arial, sans-serif" font-size="25" font-weight="900" fill="#071124">Udaipur</text>
    <rect x="42" y="250" width="276" height="76" rx="26" fill="#F8FAFC"/>
    <text x="74" y="298" font-family="Inter, Segoe UI, Arial, sans-serif" font-size="25" font-weight="900" fill="#071124">Goa</text>
    <rect x="64" y="342" width="232" height="38" rx="19" fill="#EAF7E8"/>
    <text x="180" y="367" text-anchor="middle" font-family="Inter, Segoe UI, Arial, sans-serif" font-size="17" font-weight="900" fill="#138808">Updated travel ideas</text>
  </g>
  <rect y="550" width="1200" height="78" fill="#138808"/>
  <text x="600" y="600" text-anchor="middle" font-family="Inter, Segoe UI, Arial, sans-serif" font-size="28" font-weight="950" fill="white">wayfinderinfo.com</text>
</svg>
